<svg
  xmlns="http://www.w3.org/2000/svg"
  aria-hidden="true"
  style="position:absolute;width:0;height:0;overflow:hidden"
><defs>
    <symbol id="icon-icon-send" viewBox="0 0 48 40">
     <path
        d="M48 0 0 22.5l15.34 4.734L39 8.75 21.003 28.983l.015.005-.018-.005V40l8.603-8.363L40.501 35l7.5-35z"
      />
      </symbol>
      <symbol id="icon-email-black" viewBox="0 0 30 40">
      <path
        d="M25 10H5a2.497 2.497 0 0 0-2.488 2.5l-.013 15c0 1.375 1.125 2.5 2.5 2.5h20c1.375 0 2.5-1.125 2.5-2.5v-15c0-1.375-1.125-2.5-2.5-2.5zm-.5 5.313-8.837 5.525c-.4.25-.925.25-1.325 0L5.5 15.313a1.061 1.061 0 1 1 1.125-1.8L15 18.75l8.375-5.238a1.061 1.061 0 1 1 1.125 1.8z"
      /></symbol>
      <symbol id="icon-phone-black" viewBox="0 0 30 40">
      <path
        d="m24.544 23.109-3.064-.35a2.402 2.402 0 0 0-1.978.688l-2.219 2.219a18.145 18.145 0 0 1-7.948-7.948l2.231-2.231a2.402 2.402 0 0 0 .688-1.978l-.35-3.039a2.414 2.414 0 0 0-2.4-2.135H7.417c-1.363 0-2.497 1.134-2.412 2.497.639 10.3 8.877 18.526 19.165 19.165 1.363.084 2.497-1.049 2.497-2.412v-2.087a2.39 2.39 0 0 0-2.123-2.388z"
      /></symbol>
      <symbol id="icon-person-black" viewBox="0 0 40 40">
      <path
        d="M20 20c3.683 0 6.667-2.983 6.667-6.667S23.684 6.666 20 6.666c-3.683 0-6.667 2.983-6.667 6.667S16.316 20 20 20zm0 3.333c-4.45 0-13.333 2.233-13.333 6.667v1.667c0 .917.75 1.667 1.667 1.667h23.333c.917 0 1.667-.75 1.667-1.667V30c0-4.433-8.883-6.667-13.333-6.667z"
      /></symbol></defs></svg>
