<svg aria-hidden="true" style="position: absolute; width: 0; height: 0; overflow: hidden;" version="1.1" xmlns="http://www.w3.org/2000/svg" xmlns:xlink="http://www.w3.org/1999/xlink">
<defs>
<symbol id="icon-click" viewBox="0 0 40 40">
<path fill="#404bbf" style="fill: var(--color1, #404bbf)" d="M5 1.25h30c2.071 0 3.75 1.679 3.75 3.75v30c0 2.071-1.679 3.75-3.75 3.75h-30c-2.071 0-3.75-1.679-3.75-3.75v-30c0-2.071 1.679-3.75 3.75-3.75z"></path>
<path fill="#f4f4fd" style="fill: var(--color2, #f4f4fd)" d="M28.614 10.638c0.432-0.414 1.007-0.642 1.603-0.638s1.168 0.242 1.594 0.662c0.426 0.42 0.673 0.99 0.688 1.589s-0.201 1.182-0.604 1.624l-12.237 15.386c-0.21 0.228-0.464 0.411-0.747 0.537s-0.587 0.195-0.896 0.201c-0.309 0.006-0.616-0.051-0.903-0.168s-0.547-0.289-0.766-0.509l-8.115-8.158c-0.226-0.212-0.407-0.467-0.533-0.751s-0.193-0.59-0.199-0.9c-0.005-0.311 0.051-0.619 0.167-0.907s0.288-0.55 0.506-0.769c0.218-0.22 0.479-0.393 0.765-0.509s0.593-0.173 0.902-0.168c0.309 0.005 0.613 0.073 0.896 0.2s0.536 0.309 0.747 0.536l6.422 6.453 10.651-13.644c0.019-0.024 0.039-0.046 0.061-0.068h-0.003z"></path>
<path fill="none" stroke="#404bbf" style="stroke: var(--color1, #404bbf)" stroke-linejoin="miter" stroke-linecap="butt" stroke-miterlimit="4" stroke-width="2.5" d="M5 1.25h30c2.071 0 3.75 1.679 3.75 3.75v30c0 2.071-1.679 3.75-3.75 3.75h-30c-2.071 0-3.75-1.679-3.75-3.75v-30c0-2.071 1.679-3.75 3.75-3.75z"></path>
</symbol>
</defs>
</svg>
